<?xml version="1.0" encoding="utf-8"?>
<!-- Generator: Adobe Illustrator 27.0.0, SVG Export Plug-In . SVG Version: 6.00 Build 0)  -->
<svg version="1.1" id="Layer_1" xmlns="http://www.w3.org/2000/svg" xmlns:xlink="http://www.w3.org/1999/xlink" x="0px" y="0px"
	 viewBox="0 0 100 100" style="enable-background:new 0 0 100 100;" xml:space="preserve">
<style type="text/css">
	.st0{fill:#A8832B;}
</style>
<g>
	<g>
		<path class="st0" d="M30.69,31.56c0.77,0.05,1.55,0.1,2.32,0.16c3.04,0.27,6.03,0.81,8.86,2.01c2.72,1.15,4.94,2.91,6.59,5.36
			c1.23,1.84,1.95,3.87,2.28,6.05c0.18,1.18,0.26,2.37,0.21,3.56c-0.08,2.2-0.43,4.35-1.29,6.39c-0.96,2.28-2.44,4.16-4.42,5.65
			c-0.2,0.15-0.4,0.21-0.65,0.21c-2.55,0-5.1,0-7.65,0c-0.05,0-0.1,0-0.16,0c-0.08,0-0.17,0.01-0.21-0.06
			c-0.06-0.1,0.03-0.17,0.08-0.24c1.51-1.84,2.2-4.02,2.62-6.31c0.45-2.44,0.53-4.91,0.48-7.39c-0.05-2.18-0.25-4.34-0.79-6.46
			c-0.35-1.36-0.84-2.67-1.61-3.85c-1.04-1.62-2.51-2.69-4.29-3.37c-1.19-0.46-2.43-0.71-3.7-0.84c-1.08-0.11-2.17-0.14-3.25-0.14
			c-2.19,0.01-4.38,0-6.56,0c-0.6,0-0.6,0-0.6,0.59c0,9.1,0,18.2,0,27.3c0,0.89,0.02,0.77-0.78,0.77c-3.17,0-6.34,0-9.51,0
			c-0.61,0-0.61,0-0.45-0.57c0.17-0.6,0.25-1.22,0.26-1.84c0-0.31,0.01-0.62,0.01-0.93c0-16.3,0-32.59,0-48.89
			c0-0.74-0.01-1.47-0.16-2.2C7.93,4.78,6.88,3.61,5.22,2.98C4.36,2.65,3.47,2.5,2.56,2.47c-0.7-0.02-1.4-0.01-2.1-0.01
			C0.04,2.45,0.01,2.41,0,1.99c0-0.06,0-0.13,0-0.19C0.02,1.5,0.06,1.46,0.35,1.44c0.12-0.01,0.23,0,0.35,0c7.95,0,15.9,0,23.84,0
			c1.58,0,3.16,0.05,4.73,0.17c2.61,0.2,5.2,0.57,7.71,1.31c2.14,0.63,4.17,1.49,5.98,2.8c2.64,1.9,4.3,4.45,4.95,7.63
			c0.56,2.73,0.5,5.46-0.3,8.14c-0.62,2.07-1.73,3.83-3.34,5.28c-1.63,1.48-3.54,2.46-5.6,3.18c-1.96,0.68-3.99,1.1-6.05,1.35
			c-0.64,0.08-1.28,0.14-1.93,0.21C30.7,31.53,30.7,31.54,30.69,31.56z M18.95,16.9c0,4.06,0,8.13,0,12.19c0,0.61,0,1.22,0,1.82
			c0,0.37,0.03,0.4,0.4,0.4c2.5-0.02,5,0.09,7.49-0.14c1.52-0.14,2.99-0.46,4.4-1.06c1.06-0.45,2.01-1.07,2.8-1.91
			c1.09-1.15,1.75-2.55,2.21-4.05c0.59-1.95,0.78-3.96,0.84-5.98c0.06-1.86-0.04-3.72-0.3-5.57c-0.23-1.6-0.61-3.15-1.28-4.62
			c-0.93-2.02-2.41-3.46-4.45-4.34c-1.81-0.78-3.72-1.1-5.67-1.16c-1.94-0.06-3.88-0.02-5.82-0.03c-0.62,0-0.62,0-0.62,0.62
			C18.95,7.69,18.95,12.3,18.95,16.9z"/>
		<path class="st0" d="M79.37,33.04c2.58-0.04,5.14,0.17,7.67,0.7c2.35,0.5,4.57,1.31,6.56,2.69c1.09,0.76,2.07,1.63,2.85,2.72
			c0.79,1.11,1.25,2.34,1.35,3.71c0.07,0.88-0.01,1.73-0.28,2.56c-0.38,1.16-1.1,2.07-2.09,2.77c-1.15,0.82-2.45,1.27-3.83,1.5
			c-0.69,0.12-1.39,0.14-2.08,0.2c-0.36,0.03-0.45-0.04-0.44-0.4c0.02-0.84-0.04-1.68-0.09-2.52c-0.14-2.17-0.43-4.32-1.14-6.4
			c-0.47-1.38-1.15-2.63-2.16-3.69c-0.84-0.87-1.83-1.52-2.95-1.96c-1.29-0.51-2.64-0.73-4.02-0.79c-1.44-0.07-2.87,0.02-4.28,0.31
			c-3.41,0.7-6.08,2.51-8.05,5.38c-1.12,1.62-1.89,3.41-2.52,5.27c-0.81,2.38-1.33,4.84-1.71,7.32c-0.25,1.68-0.43,3.36-0.57,5.05
			c-0.08,1.01-0.11,2.01-0.2,3.02c-0.04,0.47-0.04,0.47-0.5,0.47c-0.06,0-0.13,0-0.19,0c-3.3,0-6.6,0-9.9,0c-0.12,0-0.23,0-0.35,0
			c-0.33-0.01-0.37-0.07-0.34-0.41c0.04-0.39,0.08-0.77,0.13-1.16c0.32-2.54,0.84-5.03,1.62-7.46c0.7-2.15,1.56-4.22,2.7-6.17
			c0.91-1.54,1.95-2.99,3.15-4.32c1.69-1.86,3.62-3.43,5.79-4.71c1.92-1.13,3.97-1.95,6.11-2.53c1.9-0.52,3.84-0.84,5.8-1.02
			C76.74,33.06,78.05,33.02,79.37,33.04z"/>
		<path class="st0" d="M57.75,81.98c1.48,0,2.95,0,4.43,0c0.09,0,0.18,0,0.27,0c0.36,0.01,0.4,0.03,0.48,0.37
			c0.18,0.78,0.4,1.55,0.63,2.32c0.71,2.29,1.61,4.48,2.96,6.47c1.74,2.57,4.05,4.4,6.98,5.44c1.27,0.45,2.59,0.73,3.93,0.85
			c0.79,0.07,1.57,0.14,2.36,0.13c1.84-0.03,3.66-0.24,5.43-0.82c2.84-0.92,5.08-2.63,6.77-5.07c1.04-1.5,1.8-3.14,2.42-4.85
			c0.27-0.76,0.51-1.52,0.71-2.3c0.02-0.06,0.03-0.13,0.06-0.19c0.08-0.22,0.13-0.24,0.35-0.14c0.55,0.25,1.02,0.61,1.38,1.1
			c0.43,0.6,0.61,1.28,0.66,2c0.06,1.03-0.17,2.01-0.59,2.94c-0.98,2.14-2.54,3.76-4.52,4.99c-2.55,1.58-5.32,2.51-8.28,2.95
			c-2.6,0.39-5.21,0.45-7.82,0.34c-2.34-0.1-4.66-0.44-6.93-1.05c-3.52-0.94-6.67-2.57-9.46-4.93c-3.12-2.65-5.39-5.91-6.99-9.66
			c-0.09-0.21-0.18-0.43-0.26-0.65c-0.05-0.14,0.01-0.23,0.16-0.24c0.12-0.01,0.23-0.01,0.35-0.01
			C54.72,81.98,56.23,81.98,57.75,81.98z"/>
	</g>
	<g>
		<path class="st0" d="M7.17,73.58c0.31-0.78,0.54-1.59,0.82-2.38c0.57-1.56,1.22-3.08,2.03-4.53c0.75-1.33,1.6-2.6,2.75-3.64
			c0.3-0.27,0.64-0.49,1.03-0.6c0.59-0.17,1.12,0.04,1.41,0.58c0.2,0.37,0.3,0.77,0.33,1.19c0.06,0.77-0.07,1.52-0.29,2.26
			c-0.47,1.57-1.19,3.03-2.1,4.4c-0.42,0.63-0.87,1.26-1.3,1.89c-0.03,0.04-0.07,0.08-0.05,0.16c0.19,0,0.37-0.09,0.54-0.17
			c1.08-0.5,2.52-0.12,3.04,1.29c0.27,0.73,0.33,1.49,0.38,2.25c0.01,0.22,0,0.44,0.02,0.66c0.01,0.19,0.09,0.23,0.25,0.12
			c0.23-0.16,0.45-0.34,0.68-0.52c1.1-0.86,2.14-1.8,3.03-2.88c0.05-0.06,0.11-0.12,0.17-0.15c0.16-0.1,0.43-0.09,0.51,0.02
			c0.11,0.16,0.08,0.32-0.01,0.47c-0.2,0.32-0.45,0.61-0.72,0.87c-0.96,0.94-1.91,1.9-3,2.69c-0.17,0.12-0.33,0.25-0.51,0.35
			c-0.33,0.19-0.5,0.45-0.56,0.83c-0.18,1.03-0.45,2.05-0.84,3.02c-0.8,2-2,3.71-3.7,5.04c-0.72,0.57-1.55,0.94-2.46,1.08
			c-0.52,0.08-1.03,0.04-1.53-0.16c-1.01-0.42-1.48-1.49-1.14-2.66c0.25-0.88,0.75-1.62,1.37-2.27c0.9-0.95,1.96-1.7,3.06-2.37
			c1.24-0.75,2.49-1.48,3.77-2.16c0.52-0.28,0.73-0.64,0.74-1.19c0-0.6,0.03-1.19-0.08-1.78c-0.07-0.41-0.19-0.8-0.39-1.17
			c-0.34-0.61-0.87-0.85-1.53-0.69c-0.68,0.17-1.32,0.45-1.87,0.92c-0.23,0.2-0.48,0.39-0.73,0.58c-0.09,0.07-0.19,0.14-0.31,0.16
			c-0.35,0.08-0.59-0.18-0.48-0.52c0.06-0.19,0.17-0.35,0.28-0.51c0.73-1.02,1.45-2.05,2.18-3.07c1.06-1.46,1.87-3.04,2.37-4.77
			c0.18-0.62,0.32-1.25,0.31-1.91c0-0.25-0.04-0.49-0.12-0.72c-0.11-0.34-0.37-0.46-0.71-0.32c-0.19,0.08-0.36,0.21-0.52,0.34
			c-0.91,0.75-1.61,1.68-2.22,2.68c-0.97,1.59-1.69,3.29-2.35,5.02c-0.9,2.39-1.57,4.85-2.15,7.33c-0.18,0.74-0.25,1.51-0.37,2.26
			c-0.03,0.2-0.06,0.41-0.12,0.61c-0.08,0.27-0.27,0.4-0.47,0.37c-0.22-0.03-0.35-0.2-0.33-0.5c0.04-0.55,0.09-1.11,0.14-1.66
			c0.09-0.91,0.19-1.83,0.27-2.74c0.13-1.43,0.32-2.85,0.5-4.28c0.18-1.37,0.34-2.75,0.51-4.12c0.04-0.35,0.09-0.69,0.14-1.04
			c0.13-0.89,0.11-1.78,0.11-2.67c0-0.29-0.07-0.56-0.15-0.84c-0.07-0.26-0.18-0.28-0.37-0.09c-0.07,0.07-0.13,0.16-0.19,0.24
			c-1.2,1.76-2.02,3.67-2.33,5.78c-0.09,0.63-0.18,1.26-0.06,1.89c0.07,0.38,0.17,0.71,0.64,0.76c0.16,0.02,0.24,0.15,0.22,0.31
			c-0.02,0.16-0.12,0.21-0.26,0.24c-0.49,0.09-0.83-0.06-1.07-0.5c-0.21-0.38-0.29-0.8-0.29-1.24c-0.01-1.26,0.24-2.47,0.61-3.66
			c0.36-1.15,0.86-2.24,1.44-3.31c0.19-0.34,0.41-0.66,0.66-0.96c0.16-0.19,0.33-0.37,0.54-0.49c0.4-0.23,0.74-0.17,1.04,0.16
			c0.39,0.43,0.5,0.96,0.52,1.51c0.04,1.1-0.01,2.2-0.1,3.29c-0.15,1.83-0.49,3.64-0.66,5.47C7.17,73.47,7.17,73.53,7.17,73.58z
			 M14.61,78.98c-0.13-0.01-0.22,0.07-0.32,0.13c-0.29,0.16-0.58,0.33-0.88,0.5c-1.49,0.86-3.01,1.65-4.37,2.73
			c-0.56,0.44-1.08,0.93-1.53,1.48c-0.44,0.53-0.78,1.13-0.87,1.83c-0.08,0.64,0.26,1.24,0.83,1.42c0.32,0.1,0.65,0.14,0.99,0.07
			c1.26-0.28,2.29-0.96,3.13-1.91c1.49-1.69,2.43-3.68,2.97-5.86C14.6,79.25,14.64,79.12,14.61,78.98z"/>
		<path class="st0" d="M64.75,77.82c-0.02-2.08,0.35-4.04,0.86-5.97c0.49-1.83,1.11-3.61,1.97-5.3c0.46-0.9,0.99-1.76,1.64-2.54
			c0.55-0.66,1.21-1.17,1.99-1.52c0.49-0.22,1-0.37,1.54-0.28c0.95,0.15,1.69,0.97,1.82,1.96c0.2,1.45-0.08,2.83-0.59,4.18
			c-0.39,1.02-0.8,2.02-1.28,3c-0.05,0.1-0.1,0.21-0.17,0.3c-0.1,0.13-0.24,0.2-0.41,0.13c-0.15-0.06-0.24-0.23-0.2-0.42
			c0.02-0.11,0.07-0.22,0.12-0.33c0.45-1.09,0.91-2.17,1.3-3.28c0.35-1,0.5-2.03,0.45-3.09c0-0.09-0.01-0.18-0.02-0.27
			c-0.13-0.91-0.82-1.37-1.71-1.14c-0.5,0.13-0.92,0.41-1.29,0.76c-0.73,0.68-1.29,1.48-1.76,2.35c-1.37,2.52-2.2,5.21-2.72,8.02
			c-0.31,1.67-0.49,3.35-0.39,5.06c0.06,0.98,0.28,1.92,0.68,2.82c0.15,0.34,0.36,0.63,0.61,0.89c0.47,0.47,1.05,0.59,1.68,0.52
			c0.34-0.04,0.66-0.13,0.97-0.28c0.55-0.27,1.06-0.59,1.55-0.96c1.67-1.28,2.91-2.93,3.97-4.73c0.67-1.14,1.27-2.32,1.9-3.48
			c0.09-0.17,0.19-0.34,0.3-0.5c0.08-0.12,0.18-0.22,0.33-0.26c0.14-0.05,0.28-0.04,0.39,0.08c0.1,0.11,0.08,0.24,0.02,0.36
			c-0.18,0.33-0.36,0.66-0.54,0.99c-0.69,1.26-1.36,2.53-2.08,3.77c-0.85,1.46-1.92,2.76-3.19,3.89c-0.55,0.49-1.12,0.96-1.77,1.33
			c-0.52,0.3-1.06,0.54-1.66,0.63c-1.32,0.2-2.33-0.28-3.06-1.38c-0.53-0.8-0.8-1.71-0.98-2.64C64.81,79.59,64.74,78.67,64.75,77.82
			z"/>
		<path class="st0" d="M93.32,76.01c0.59-0.41,1.19-0.82,1.78-1.23c0.23-0.16,0.48-0.3,0.75-0.4c0.59-0.22,1.14,0.12,1.19,0.71
			c0.06,0.61,0.09,0.61,0.57,0.22c0.39-0.32,0.72-0.71,1.1-1.04c0.23-0.21,0.46-0.42,0.69-0.62c0.04-0.03,0.08-0.07,0.12-0.1
			c0.13-0.08,0.27-0.12,0.39-0.01c0.13,0.12,0.08,0.27-0.02,0.38c-0.18,0.22-0.35,0.45-0.57,0.64c-0.71,0.62-1.42,1.25-2.13,1.87
			c-0.2,0.17-0.39,0.34-0.45,0.61c-0.19,0.81-0.56,1.56-0.95,2.29c-0.7,1.31-1.56,2.5-2.61,3.56c-0.23,0.23-0.48,0.43-0.75,0.62
			c-0.19,0.14-0.4,0.23-0.64,0.27c-0.46,0.07-0.79-0.18-0.81-0.65c-0.02-0.41,0.09-0.79,0.27-1.16c0.38-0.8,0.88-1.52,1.45-2.2
			c0.5-0.61,1.07-1.16,1.65-1.69c0.51-0.46,1-0.94,1.54-1.37c0.14-0.11,0.23-0.25,0.27-0.41c0.08-0.3,0.13-0.61,0.1-0.92
			c-0.02-0.25-0.12-0.32-0.36-0.24c-0.18,0.06-0.36,0.15-0.52,0.25c-0.59,0.35-1.16,0.73-1.69,1.16c-0.28,0.23-0.57,0.45-0.85,0.67
			c-0.11,0.09-0.23,0.17-0.37,0.21c-0.3,0.09-0.49-0.07-0.45-0.38c0.04-0.25,0.15-0.47,0.28-0.68c0.51-0.84,1.02-1.68,1.53-2.52
			c0.38-0.65,0.74-1.31,0.98-2.02c0.05-0.15,0.18-0.37,0.05-0.47c-0.17-0.13-0.32,0.09-0.46,0.19c-0.64,0.48-1.16,1.06-1.67,1.67
			c-0.18,0.21-0.3,0.45-0.39,0.71c-0.04,0.12-0.09,0.24-0.21,0.31c-0.34,0.19-0.67,0.01-0.68-0.38c-0.01-0.18,0.07-0.33,0.17-0.46
			c0.71-0.9,1.5-1.71,2.45-2.35c0.2-0.14,0.41-0.27,0.65-0.34c0.49-0.16,0.78,0.06,0.79,0.58c0,0.21-0.05,0.41-0.11,0.61
			c-0.23,0.75-0.62,1.42-1,2.1c-0.31,0.54-0.64,1.07-0.95,1.6c-0.08,0.13-0.14,0.27-0.22,0.4C93.28,75.99,93.3,76,93.32,76.01z
			 M95.71,77.81c-0.06,0.01-0.09,0-0.11,0.02c-0.04,0.03-0.08,0.06-0.12,0.09c-1.04,0.84-1.95,1.81-2.75,2.88
			c-0.36,0.48-0.69,0.97-0.93,1.52c-0.09,0.2-0.17,0.41-0.14,0.64c0.01,0.15,0.11,0.21,0.24,0.16c0.09-0.04,0.19-0.09,0.27-0.16
			c0.24-0.21,0.49-0.42,0.71-0.65c1.14-1.16,1.93-2.55,2.65-3.99C95.61,78.16,95.69,78.01,95.71,77.81z"/>
		<path class="st0" d="M33.55,74.73c0.1-0.16,0.19-0.31,0.28-0.46c0.17-0.31,0.39-0.58,0.63-0.84c0.09-0.09,0.18-0.18,0.29-0.26
			c0.81-0.62,1.6-0.4,2.01,0.53c0.17,0.38,0.17,0.78,0.15,1.18c-0.01,0.13-0.08,0.32,0.06,0.4c0.13,0.08,0.26-0.07,0.38-0.13
			c0.57-0.31,1.08-0.71,1.57-1.13c0.15-0.13,0.3-0.25,0.45-0.37c0.09-0.07,0.19-0.13,0.32-0.13c0.22,0,0.34,0.15,0.25,0.36
			c-0.07,0.16-0.2,0.27-0.31,0.39c-0.67,0.69-1.47,1.22-2.31,1.69c-0.08,0.04-0.15,0.09-0.24,0.13c-0.32,0.15-0.52,0.4-0.64,0.74
			c-0.27,0.75-0.67,1.43-1.27,1.97c-0.42,0.38-0.9,0.65-1.46,0.77c-0.27,0.05-0.54,0.06-0.81-0.03c-0.43-0.14-0.66-0.52-0.58-0.97
			c0.05-0.29,0.22-0.52,0.42-0.73c0.56-0.59,1.26-0.98,1.97-1.37c0.31-0.17,0.62-0.32,0.93-0.48c0.15-0.07,0.26-0.17,0.3-0.33
			c0.16-0.56,0.22-1.12,0.05-1.68c-0.14-0.47-0.42-0.56-0.82-0.27c-0.53,0.4-0.87,0.95-1.15,1.54c-0.18,0.39-0.32,0.79-0.49,1.18
			c-0.09,0.21-0.17,0.45-0.46,0.45c-0.21,0-0.35-0.18-0.38-0.55c-0.06-0.68-0.03-1.37,0.01-2.06c0.05-0.9,0.12-1.81,0.21-2.71
			c0.1-1.07,0.25-2.13,0.54-3.17c0.07-0.25,0.17-0.49,0.26-0.73c0.04-0.11,0.11-0.21,0.18-0.3c0.1-0.12,0.21-0.24,0.39-0.18
			c0.16,0.05,0.25,0.22,0.21,0.45c-0.05,0.27-0.12,0.53-0.17,0.8c-0.34,1.53-0.55,3.08-0.7,4.64c-0.04,0.46-0.09,0.93-0.12,1.39
			C33.5,74.55,33.47,74.63,33.55,74.73z M35.44,76.99c-0.07-0.06-0.12-0.03-0.17-0.01c-0.41,0.2-0.81,0.41-1.19,0.66
			c-0.36,0.24-0.67,0.53-0.94,0.86c-0.07,0.09-0.14,0.2-0.08,0.32c0.07,0.12,0.19,0.12,0.31,0.12c0.26-0.01,0.51-0.08,0.73-0.24
			C34.72,78.25,35.11,77.64,35.44,76.99z"/>
		<path class="st0" d="M86.42,73.64c-0.22,0.35-0.44,0.7-0.66,1.04c-0.23,0.36-0.48,0.71-0.79,1c-0.07,0.06-0.13,0.13-0.2,0.18
			c-0.48,0.37-1.07,0.17-1.2-0.42c-0.13-0.56-0.08-1.13,0.02-1.69c0.1-0.52,0.28-1.02,0.5-1.5c0.09-0.19,0.2-0.36,0.35-0.51
			c0.13-0.12,0.27-0.19,0.45-0.17c0.28,0.03,0.43,0.25,0.35,0.53c-0.04,0.13-0.11,0.26-0.17,0.39c-0.31,0.67-0.57,1.36-0.67,2.1
			c-0.02,0.16-0.1,0.39,0.07,0.46c0.19,0.08,0.27-0.15,0.36-0.28c0.49-0.7,0.97-1.4,1.46-2.1c0.07-0.1,0.14-0.19,0.22-0.27
			c0.13-0.13,0.29-0.16,0.47-0.11c0.17,0.06,0.24,0.2,0.25,0.36c0.01,0.3,0.01,0.59,0.01,0.89c0,0.29,0.01,0.57,0.08,0.85
			c0.02,0.07,0.04,0.15,0.07,0.22c0.21,0.55,0.53,0.66,1.03,0.36c0.34-0.2,0.61-0.47,0.9-0.73c0.18-0.17,0.35-0.34,0.53-0.51
			c0.07-0.07,0.15-0.14,0.24-0.2c0.15-0.1,0.32-0.14,0.47-0.01c0.16,0.14,0.09,0.31,0,0.46c-0.04,0.07-0.08,0.13-0.14,0.19
			c-0.47,0.5-0.96,0.98-1.54,1.35c-0.88,0.56-1.96,0.54-2.25-0.94c-0.06-0.3-0.09-0.61-0.13-0.91
			C86.47,73.65,86.44,73.65,86.42,73.64z"/>
		<path class="st0" d="M54,74.11c-0.19,0.14-0.25,0.3-0.32,0.44c-0.19,0.35-0.37,0.71-0.61,1.03c-0.13,0.17-0.29,0.29-0.52,0.29
			c-0.42,0.01-0.61-0.14-0.7-0.56c-0.08-0.36-0.04-0.72,0.05-1.08c0.21-0.81,0.57-1.55,1.12-2.19c0.27-0.31,0.59-0.54,1-0.62
			c0.53-0.1,1.04,0.15,1.26,0.62c0.07,0.16,0.15,0.33-0.03,0.46c-0.15,0.11-0.29,0.04-0.43-0.05c-0.01-0.01-0.02-0.01-0.03-0.02
			c-0.44-0.46-0.78-0.27-1.11,0.11c-0.5,0.58-0.84,1.24-0.99,1.99c-0.01,0.03,0.01,0.07,0.02,0.14c0.15-0.13,0.22-0.28,0.3-0.42
			c0.28-0.48,0.55-0.97,0.83-1.44c0.11-0.19,0.22-0.4,0.51-0.33c0.21,0.05,0.31,0.21,0.33,0.55c0.02,0.35,0,0.7,0.08,1.04
			c0.2,0.84,0.79,1.08,1.5,0.6c0.28-0.19,0.52-0.43,0.73-0.69c0.14-0.17,0.29-0.33,0.44-0.49c0.1-0.1,0.22-0.14,0.35-0.06
			c0.13,0.07,0.15,0.2,0.14,0.34c-0.01,0.13-0.06,0.25-0.13,0.36c-0.41,0.63-0.96,1.12-1.65,1.42c-0.71,0.3-1.41,0.05-1.81-0.6
			C54.18,74.7,54.08,74.44,54,74.11z"/>
		<path class="st0" d="M22,74.68c0.17-0.18,0.25-0.35,0.34-0.51c0.28-0.48,0.53-0.98,0.85-1.44c0.08-0.12,0.16-0.24,0.32-0.25
			c0.2-0.01,0.36,0.11,0.41,0.33c0.06,0.21,0.07,0.43,0.07,0.65c0,0.3,0.03,0.59,0.14,0.88c0.23,0.57,0.73,0.75,1.26,0.44
			c0.41-0.24,0.72-0.59,1.02-0.95c0.1-0.12,0.18-0.25,0.31-0.34c0.11-0.08,0.23-0.12,0.36-0.05c0.12,0.07,0.12,0.19,0.12,0.31
			c-0.01,0.23-0.12,0.42-0.26,0.59c-0.35,0.42-0.75,0.79-1.22,1.07c-0.85,0.51-1.74,0.25-2.2-0.63c-0.11-0.21-0.18-0.43-0.26-0.7
			c-0.16,0.16-0.24,0.33-0.32,0.49c-0.18,0.36-0.37,0.71-0.61,1.03c-0.15,0.2-0.34,0.3-0.6,0.28c-0.39-0.04-0.56-0.18-0.61-0.57
			c-0.05-0.37-0.05-0.75,0.06-1.12c0.25-0.88,0.64-1.69,1.32-2.34c0.24-0.23,0.52-0.38,0.85-0.43c0.51-0.08,1.02,0.19,1.21,0.64
			c0.06,0.14,0.13,0.31-0.02,0.43c-0.16,0.13-0.32,0.04-0.46-0.04c-0.03-0.02-0.06-0.05-0.09-0.07c-0.39-0.3-0.63-0.29-0.96,0.08
			c-0.38,0.43-0.7,0.9-0.88,1.45C22.08,74.15,21.97,74.37,22,74.68z"/>
		<path class="st0" d="M41.36,74.7c0.16-0.16,0.24-0.31,0.32-0.45c0.24-0.43,0.48-0.86,0.73-1.28c0.06-0.11,0.14-0.22,0.22-0.32
			c0.09-0.12,0.21-0.19,0.37-0.16c0.17,0.03,0.27,0.14,0.31,0.31c0.05,0.18,0.05,0.36,0.04,0.54c-0.01,0.3,0.03,0.6,0.12,0.88
			c0.2,0.69,0.73,0.9,1.35,0.53c0.33-0.19,0.59-0.46,0.83-0.75c0.14-0.17,0.29-0.34,0.44-0.49c0.1-0.1,0.23-0.14,0.36-0.08
			c0.15,0.08,0.16,0.22,0.14,0.37c-0.03,0.17-0.11,0.32-0.21,0.45c-0.37,0.51-0.83,0.92-1.39,1.21c-0.83,0.42-1.58,0.18-2.05-0.62
			c-0.12-0.21-0.19-0.45-0.26-0.68c-0.14-0.03-0.16,0.08-0.2,0.15c-0.13,0.22-0.25,0.45-0.37,0.68c-0.13,0.24-0.28,0.47-0.46,0.67
			c-0.21,0.24-0.48,0.24-0.75,0.17c-0.25-0.06-0.34-0.25-0.39-0.49c-0.08-0.36-0.05-0.72,0.04-1.08c0.21-0.83,0.56-1.58,1.13-2.23
			c0.19-0.22,0.42-0.39,0.68-0.51c0.62-0.3,1.32-0.06,1.59,0.52c0.07,0.14,0.13,0.3-0.01,0.43c-0.16,0.14-0.31,0.06-0.46-0.04
			c-0.01-0.01-0.02-0.02-0.03-0.02c-0.48-0.36-0.67-0.34-1.08,0.1C41.96,72.94,41.37,73.98,41.36,74.7z"/>
		<path class="st0" d="M79.9,73.71c0.32-0.35,0.72-0.37,1.13-0.36c0.35,0.01,0.7,0,1.05,0.01c0.14,0,0.29,0.02,0.42,0.07
			c0.11,0.05,0.2,0.12,0.2,0.26c0,0.13-0.09,0.21-0.2,0.26c-0.13,0.06-0.28,0.07-0.42,0.07c-0.35,0-0.7,0.01-1.05,0
			c-0.37-0.01-0.62,0.16-0.79,0.46c-0.28,0.49-0.46,1.01-0.46,1.58c0,0.12-0.01,0.23-0.04,0.35c-0.05,0.2-0.2,0.31-0.39,0.31
			c-0.21,0-0.29-0.14-0.32-0.32c-0.02-0.09-0.04-0.18-0.03-0.27c0.05-0.97-0.06-1.94,0.06-2.9c0.04-0.31,0.07-0.62,0.17-0.91
			c0.05-0.14,0.1-0.27,0.26-0.31c0.24-0.07,0.45,0.09,0.45,0.38c0,0.41-0.02,0.83-0.03,1.24C79.9,73.63,79.9,73.67,79.9,73.71z"/>
		<path class="st0" d="M28.88,73.67c0.32-0.36,0.73-0.33,1.13-0.32c0.31,0,0.62,0,0.93,0c0.14,0,0.28,0.01,0.42,0.06
			c0.13,0.05,0.24,0.11,0.24,0.27c0,0.17-0.12,0.26-0.26,0.29c-0.12,0.03-0.26,0.04-0.38,0.04c-0.34,0-0.67,0.01-1.01,0
			c-0.39-0.02-0.63,0.16-0.8,0.49c-0.24,0.46-0.43,0.94-0.43,1.48c0,0.15-0.03,0.31-0.07,0.46c-0.05,0.19-0.19,0.27-0.38,0.27
			c-0.18,0-0.28-0.11-0.32-0.32c-0.02-0.09-0.02-0.18-0.02-0.27c0-0.78,0-1.55,0-2.33c0-0.43,0.06-0.85,0.15-1.27
			c0.02-0.1,0.05-0.2,0.09-0.3c0.07-0.17,0.19-0.27,0.39-0.24c0.19,0.04,0.3,0.16,0.3,0.35c0.01,0.13,0,0.26-0.02,0.39
			C28.82,73.01,28.82,73.32,28.88,73.67z"/>
		<path class="st0" d="M48.28,73.74c0.4-0.47,0.88-0.39,1.34-0.39c0.32,0,0.65,0,0.97,0.02c0.29,0.02,0.43,0.13,0.44,0.3
			c0.01,0.18-0.15,0.31-0.45,0.33c-0.37,0.02-0.75,0.03-1.12,0c-0.47-0.03-0.75,0.18-0.94,0.59c-0.21,0.44-0.38,0.88-0.37,1.37
			c0,0.15-0.03,0.31-0.07,0.46c-0.05,0.19-0.23,0.3-0.41,0.28c-0.19-0.02-0.26-0.15-0.29-0.32c-0.01-0.09-0.02-0.18-0.02-0.27
			c0-0.78,0-1.55,0.01-2.33c0-0.43,0.05-0.85,0.14-1.27c0.03-0.12,0.07-0.25,0.13-0.36c0.07-0.15,0.19-0.2,0.35-0.18
			c0.15,0.03,0.26,0.11,0.3,0.27c0.03,0.15,0.02,0.31,0,0.46C48.24,73.01,48.23,73.33,48.28,73.74z"/>
		<path class="st0" d="M24.79,69.24c-0.01,0.15-0.05,0.26-0.09,0.36c-0.24,0.54-0.61,0.99-1.01,1.41c-0.19,0.2-0.38,0.22-0.55,0.09
			c-0.16-0.13-0.2-0.33-0.07-0.56c0.24-0.44,0.49-0.88,0.74-1.31c0.08-0.13,0.18-0.25,0.31-0.34c0.14-0.08,0.29-0.13,0.44-0.04
			C24.72,68.94,24.79,69.08,24.79,69.24z"/>
	</g>
</g>
</svg>
