<?xml version="1.0" encoding="utf-8"?>
<!-- Generator: Adobe Illustrator 27.0.0, SVG Export Plug-In . SVG Version: 6.00 Build 0)  -->
<svg version="1.1" id="Layer_1" xmlns="http://www.w3.org/2000/svg" xmlns:xlink="http://www.w3.org/1999/xlink" x="0px" y="0px"
	 viewBox="0 0 213.28 215.1" style="enable-background:new 0 0 213.28 215.1;" xml:space="preserve">
<style type="text/css">
	.st0{fill:#C98268;}
</style>
<g>
	<g>
		<g>
			<g>
				<path class="st0" d="M106.73,4.82c-0.68,2.75-1.06,4.62-1.07,7.91c0,0.56,0,1.47-0.01,3.35c0,3.77,0.01,12.69,0.01,12.69
					s0,7.47-0.01,11.61c0,2.52,0.01,4.08,0.01,4.89c0.02,3.29,0.39,5.16,1.07,7.91c0.68-2.75,1.06-4.62,1.07-7.91
					c0-0.81,0-2.37,0.01-4.89c0-4.14-0.01-11.61-0.01-11.61s0-8.92,0.01-12.69c0-1.89-0.01-2.79-0.01-3.35
					C107.78,9.44,107.41,7.57,106.73,4.82z"/>
			</g>
			<g>
				<path class="st0" d="M107.28,162.02c-0.68,2.75-1.06,4.62-1.07,7.91c0,0.56,0,1.47-0.01,3.35c0,3.77,0.01,12.69,0.01,12.69
					s0,7.47-0.01,11.61c0,2.52,0.01,4.08,0.01,4.89c0.02,3.29,0.39,5.16,1.07,7.91c0.68-2.75,1.06-4.62,1.07-7.91
					c0-0.81,0-2.37,0.01-4.89c0-4.14-0.01-11.61-0.01-11.61s0-8.92,0.01-12.69c0-1.89-0.01-2.79-0.01-3.35
					C108.33,166.64,107.96,164.77,107.28,162.02z"/>
			</g>
		</g>
		<g>
			<g>
				<path class="st0" d="M209.78,107.33c-2.75-0.68-4.62-1.06-7.91-1.07c-0.56,0-1.47,0-3.35-0.01c-3.77,0-12.69,0.01-12.69,0.01
					s-7.47,0-11.61-0.01c-2.52,0-4.08,0.01-4.89,0.01c-3.29,0.02-5.16,0.39-7.91,1.07c2.75,0.68,4.62,1.06,7.91,1.07
					c0.81,0,2.37,0,4.89,0.01c4.14,0,11.61-0.01,11.61-0.01s8.92,0,12.69,0.01c1.89,0,2.79-0.01,3.35-0.01
					C205.16,108.38,207.03,108.01,209.78,107.33z"/>
			</g>
			<g>
				<path class="st0" d="M52.59,107.88c-2.75-0.68-4.62-1.06-7.91-1.07c-0.56,0-1.47,0-3.35-0.01c-3.77,0-12.69,0.01-12.69,0.01
					s-7.47,0-11.61-0.01c-2.52,0-4.08,0.01-4.89,0.01c-3.29,0.02-5.16,0.39-7.91,1.07c2.75,0.68,4.62,1.06,7.91,1.07
					c0.81,0,2.37,0,4.89,0.01c4.14,0,11.61-0.01,11.61-0.01s8.92,0,12.69,0.01c1.89,0,2.79-0.01,3.35-0.01
					C47.97,108.93,49.84,108.56,52.59,107.88z"/>
			</g>
		</g>
	</g>
	<g>
		<g>
			<g>
				<path class="st0" d="M91.89,20.76c-0.17,2.83-0.2,4.74,0.38,7.98c0.1,0.55,0.26,1.44,0.6,3.3C93.15,33.51,93.8,37,93.8,37
					s0.54,2.92,0.83,4.54c0.46,2.48,0.75,4.01,0.9,4.81c0.61,3.24,1.32,5.01,2.49,7.59c0.17-2.83,0.2-4.74-0.38-7.98
					c-0.15-0.8-0.43-2.33-0.88-4.81c-0.3-1.62-0.85-4.54-0.85-4.54s-0.64-3.49-0.91-4.96c-0.35-1.85-0.51-2.75-0.62-3.3
					C93.76,25.11,93.06,23.34,91.89,20.76z"/>
			</g>
			<g>
				<path class="st0" d="M115.99,161.27c-0.22,2.83-0.27,4.73,0.26,7.98c0.09,0.55,0.24,1.45,0.55,3.31
					c0.25,1.46,0.83,4.93,0.83,4.93s0.48,2.9,0.75,4.51c0.42,2.48,0.68,4.02,0.82,4.82c0.56,3.25,1.24,5.03,2.37,7.63
					c0.22-2.83,0.27-4.73-0.26-7.98c-0.13-0.8-0.39-2.34-0.8-4.83c-0.27-1.61-0.77-4.51-0.77-4.51s-0.58-3.47-0.82-4.93
					c-0.32-1.86-0.47-2.76-0.56-3.31C117.79,165.65,117.12,163.87,115.99,161.27z"/>
			</g>
		</g>
		<g>
			<g>
				<path class="st0" d="M194.12,94.41c-2.82-0.34-4.72-0.47-7.99-0.08c-0.55,0.07-1.45,0.18-3.33,0.41
					c-1.48,0.19-4.99,0.63-4.99,0.63s-2.94,0.37-4.57,0.57c-2.5,0.32-4.04,0.51-4.85,0.62c-3.27,0.43-5.07,1.03-7.72,2.05
					c2.82,0.34,4.72,0.47,7.99,0.08c0.81-0.1,2.36-0.29,4.85-0.6c1.63-0.21,4.57-0.58,4.57-0.58s3.51-0.44,5-0.62
					c1.87-0.24,2.77-0.35,3.33-0.42C189.67,96.04,191.47,95.44,194.12,94.41z"/>
			</g>
			<g>
				<path class="st0" d="M53.33,116.59c-2.83-0.15-4.74-0.15-7.97,0.46c-0.55,0.11-1.44,0.28-3.29,0.63
					c-1.44,0.28-4.84,0.95-4.84,0.95s-2.85,0.55-4.43,0.86c-2.47,0.48-4,0.79-4.8,0.94c-3.23,0.65-4.99,1.37-7.56,2.56
					c2.83,0.15,4.74,0.15,7.97-0.46c0.8-0.15,2.33-0.45,4.8-0.93c1.58-0.31,4.43-0.87,4.43-0.87s3.4-0.66,4.84-0.94
					c1.85-0.36,2.74-0.54,3.29-0.65C49,118.51,50.76,117.79,53.33,116.59z"/>
			</g>
		</g>
	</g>
	<g>
		<g>
			<g>
				<path class="st0" d="M119.45,20.25c-1.04,2.64-1.65,4.44-2.1,7.71c-0.07,0.55-0.19,1.45-0.44,3.32c-0.19,1.49-0.65,5-0.65,5
					s-0.39,2.94-0.61,4.58c-0.33,2.5-0.53,4.04-0.63,4.85c-0.41,3.27-0.29,5.17,0.03,7.99c1.04-2.64,1.65-4.44,2.1-7.71
					c0.11-0.81,0.31-2.35,0.65-4.85c0.21-1.63,0.6-4.58,0.6-4.58s0.47-3.52,0.67-5c0.24-1.87,0.36-2.77,0.43-3.32
					C119.89,24.97,119.77,23.07,119.45,20.25z"/>
			</g>
			<g>
				<path class="st0" d="M98.99,161.34c-1.08,2.62-1.72,4.42-2.22,7.67c-0.08,0.55-0.22,1.45-0.5,3.32
					c-0.22,1.47-0.73,4.94-0.73,4.94s-0.44,2.91-0.68,4.52c-0.37,2.49-0.59,4.03-0.71,4.84c-0.47,3.26-0.37,5.16-0.1,7.99
					c1.08-2.62,1.72-4.42,2.22-7.67c0.12-0.81,0.35-2.35,0.72-4.84c0.24-1.61,0.66-4.52,0.66-4.52s0.52-3.47,0.74-4.94
					c0.27-1.87,0.4-2.77,0.49-3.32C99.36,166.07,99.27,164.16,98.99,161.34z"/>
			</g>
		</g>
		<g>
			<g>
				<path class="st0" d="M193.95,121.87c-2.57-1.19-4.34-1.9-7.57-2.54c-0.55-0.11-1.44-0.28-3.29-0.63
					c-1.47-0.28-4.95-0.94-4.95-0.94s-2.91-0.56-4.52-0.87c-2.47-0.47-4.01-0.76-4.81-0.91c-3.24-0.6-5.14-0.59-7.98-0.43
					c2.57,1.19,4.34,1.9,7.57,2.54c0.8,0.15,2.33,0.45,4.8,0.92c1.61,0.31,4.52,0.86,4.52,0.86s3.48,0.67,4.94,0.95
					c1.85,0.35,2.75,0.52,3.29,0.62C189.21,122.04,191.12,122.02,193.95,121.87z"/>
			</g>
			<g>
				<path class="st0" d="M53.19,99.5c-2.65-1.01-4.46-1.61-7.73-2.02c-0.55-0.07-1.45-0.18-3.33-0.41c-1.45-0.18-4.9-0.59-4.9-0.59
					s-2.88-0.36-4.48-0.55c-2.5-0.3-4.05-0.49-4.86-0.59c-3.27-0.38-5.17-0.24-7.99,0.1c2.65,1.01,4.46,1.61,7.73,2.02
					c0.81,0.1,2.36,0.29,4.85,0.6c1.6,0.19,4.48,0.54,4.48,0.54s3.44,0.42,4.89,0.6c1.87,0.23,2.77,0.33,3.33,0.4
					C48.48,99.99,50.38,99.84,53.19,99.5z"/>
			</g>
		</g>
	</g>
	<g>
		<g>
			<g>
				<path class="st0" d="M146.54,28.77c-1.82,2.17-2.98,3.69-4.44,6.64c-0.25,0.5-0.65,1.32-1.48,3.01
					c-0.66,1.35-2.21,4.54-2.21,4.54s-1.31,2.67-2.03,4.14c-1.1,2.26-1.79,3.67-2.14,4.4c-1.43,2.97-1.92,4.81-2.51,7.58
					c1.82-2.17,2.98-3.69,4.44-6.64c0.36-0.73,1.05-2.13,2.16-4.39c0.72-1.48,2.02-4.15,2.02-4.15s1.56-3.19,2.22-4.53
					c0.83-1.7,1.22-2.51,1.47-3.01C145.45,33.38,145.94,31.54,146.54,28.77z"/>
			</g>
			<g>
				<path class="st0" d="M82.25,156.02c-1.86,2.14-3.04,3.64-4.55,6.57c-0.25,0.5-0.67,1.31-1.53,2.99
					c-0.67,1.32-2.26,4.45-2.26,4.45s-1.34,2.62-2.08,4.07c-1.14,2.25-1.84,3.64-2.21,4.36c-1.48,2.94-2,4.78-2.64,7.54
					c1.86-2.14,3.04-3.64,4.55-6.57c0.37-0.73,1.08-2.11,2.23-4.36c0.74-1.45,2.07-4.08,2.07-4.08s1.6-3.13,2.27-4.45
					c0.85-1.68,1.26-2.49,1.52-2.99C81.1,160.61,81.61,158.78,82.25,156.02z"/>
			</g>
		</g>
		<g>
			<g>
				<path class="st0" d="M184.84,148.81c-2.06-1.95-3.51-3.19-6.37-4.82c-0.49-0.27-1.28-0.72-2.92-1.65
					c-1.3-0.73-4.39-2.46-4.39-2.46s-2.58-1.46-4.01-2.26c-2.2-1.23-3.56-1.99-4.27-2.39c-2.88-1.6-4.69-2.19-7.42-2.95
					c2.06,1.95,3.51,3.19,6.37,4.82c0.71,0.4,2.07,1.17,4.26,2.41c1.43,0.8,4.02,2.25,4.02,2.25s3.08,1.74,4.38,2.47
					c1.65,0.92,2.44,1.37,2.93,1.64C180.29,147.46,182.1,148.06,184.84,148.81z"/>
			</g>
			<g>
				<path class="st0" d="M58.51,82.82c-2.19-1.8-3.72-2.94-6.68-4.38c-0.5-0.24-1.32-0.63-3.02-1.45c-1.32-0.63-4.45-2.12-4.45-2.12
					s-2.62-1.25-4.07-1.95c-2.27-1.08-3.68-1.75-4.42-2.1c-2.98-1.4-4.83-1.87-7.6-2.44c2.19,1.8,3.72,2.94,6.68,4.38
					c0.73,0.35,2.14,1.03,4.41,2.11c1.45,0.69,4.07,1.94,4.07,1.94s3.13,1.5,4.45,2.13c1.7,0.81,2.52,1.2,3.03,1.44
					C53.89,81.78,55.73,82.25,58.51,82.82z"/>
			</g>
		</g>
	</g>
	<g>
		<g>
			<g>
				<path class="st0" d="M168.15,44.26c-2.39,1.53-3.94,2.63-6.22,5.01c-0.38,0.4-1.01,1.06-2.31,2.43
					c-1.03,1.09-3.46,3.67-3.46,3.67s-2.04,2.15-3.18,3.35c-1.73,1.83-2.8,2.97-3.36,3.56c-2.25,2.4-3.27,4.02-4.66,6.49
					c2.39-1.53,3.94-2.63,6.22-5.01c0.56-0.59,1.63-1.72,3.37-3.55c1.13-1.2,3.17-3.36,3.17-3.36s2.44-2.57,3.47-3.66
					c1.29-1.37,1.92-2.03,2.3-2.44C165.74,48.35,166.76,46.73,168.15,44.26z"/>
			</g>
			<g>
				<path class="st0" d="M68.86,146.56c-2.41,1.49-3.98,2.57-6.3,4.91c-0.39,0.4-1.03,1.05-2.35,2.39
					c-1.03,1.06-3.49,3.58-3.49,3.58s-2.06,2.1-3.2,3.26c-1.76,1.8-2.84,2.92-3.41,3.5c-2.29,2.37-3.33,3.96-4.76,6.41
					c2.41-1.49,3.98-2.57,6.3-4.91c0.57-0.58,1.66-1.7,3.42-3.49c1.14-1.17,3.19-3.27,3.19-3.27s2.46-2.51,3.5-3.57
					c1.32-1.35,1.95-2,2.34-2.4C66.39,150.61,67.43,149.01,68.86,146.56z"/>
			</g>
		</g>
		<g>
			<g>
				<path class="st0" d="M168.93,170.26c-1.39-2.47-2.4-4.09-4.65-6.5c-0.38-0.41-1-1.07-2.29-2.44c-1.03-1.09-3.46-3.66-3.46-3.66
					s-2.03-2.16-3.15-3.36c-1.73-1.83-2.8-2.96-3.36-3.56c-2.27-2.39-3.82-3.49-6.21-5.03c1.39,2.47,2.4,4.09,4.65,6.5
					c0.56,0.59,1.62,1.73,3.35,3.57c1.13,1.19,3.16,3.35,3.16,3.35s2.42,2.58,3.45,3.67c1.3,1.37,1.92,2.03,2.3,2.44
					C164.99,167.62,166.54,168.73,168.93,170.26z"/>
			</g>
			<g>
				<path class="st0" d="M68.02,69.61c-1.55-2.37-2.67-3.92-5.07-6.17c-0.41-0.38-1.07-1-2.45-2.29c-1.07-0.99-3.62-3.35-3.62-3.35
					s-2.12-1.98-3.3-3.07c-1.85-1.71-2.99-2.77-3.59-3.32c-2.43-2.23-4.05-3.23-6.53-4.6c1.55,2.37,2.67,3.92,5.07,6.17
					c0.6,0.55,1.74,1.62,3.58,3.33c1.18,1.09,3.31,3.06,3.31,3.06s2.54,2.36,3.61,3.36c1.39,1.28,2.05,1.9,2.46,2.28
					C63.91,67.24,65.54,68.24,68.02,69.61z"/>
			</g>
		</g>
	</g>
	<g>
		<g>
			<g>
				<path class="st0" d="M184.91,67.02c-2.75,0.7-4.57,1.25-7.48,2.8c-0.49,0.26-1.29,0.69-2.96,1.58
					c-1.32,0.71-4.44,2.39-4.44,2.39s-2.62,1.4-4.07,2.18c-2.22,1.19-3.59,1.93-4.31,2.32c-2.9,1.57-4.37,2.78-6.47,4.69
					c2.75-0.7,4.57-1.25,7.48-2.8c0.72-0.38,2.09-1.12,4.31-2.31c1.45-0.78,4.06-2.19,4.06-2.19s3.13-1.67,4.45-2.38
					c1.66-0.9,2.46-1.33,2.95-1.59C181.34,70.13,182.81,68.92,184.91,67.02z"/>
			</g>
			<g>
				<path class="st0" d="M58.43,132.8c-2.76,0.65-4.59,1.18-7.52,2.68c-0.5,0.26-1.3,0.67-2.98,1.53c-1.32,0.68-4.44,2.3-4.44,2.3
					s-2.62,1.34-4.07,2.09c-2.24,1.16-3.62,1.88-4.34,2.25c-2.92,1.53-4.41,2.71-6.54,4.58c2.76-0.65,4.59-1.18,7.53-2.68
					c0.72-0.37,2.11-1.09,4.35-2.24c1.45-0.75,4.06-2.1,4.06-2.1s3.12-1.61,4.44-2.29c1.68-0.87,2.48-1.29,2.98-1.54
					C54.81,135.86,56.3,134.67,58.43,132.8z"/>
			</g>
		</g>
		<g>
			<g>
				<path class="st0" d="M145.93,186.84c-0.54-2.78-0.99-4.64-2.36-7.63c-0.23-0.51-0.62-1.33-1.41-3.04
					c-0.63-1.35-2.13-4.56-2.13-4.56s-1.24-2.69-1.93-4.18c-1.06-2.28-1.72-3.7-2.07-4.43c-1.4-2.98-2.53-4.52-4.31-6.73
					c0.54,2.78,0.99,4.63,2.36,7.63c0.34,0.74,1,2.15,2.05,4.44c0.69,1.49,1.95,4.17,1.95,4.17s1.49,3.21,2.12,4.57
					c0.8,1.71,1.18,2.53,1.42,3.04C143.02,183.09,144.15,184.63,145.93,186.84z"/>
			</g>
			<g>
				<path class="st0" d="M81.89,59.51c-0.72-2.74-1.3-4.56-2.87-7.45c-0.27-0.49-0.7-1.29-1.61-2.94c-0.71-1.28-2.38-4.32-2.38-4.32
					s-1.39-2.55-2.16-3.96c-1.22-2.21-1.97-3.57-2.36-4.28c-1.6-2.88-2.82-4.34-4.75-6.42c0.72,2.74,1.3,4.56,2.87,7.45
					c0.39,0.71,1.14,2.08,2.35,4.29c0.78,1.41,2.18,3.95,2.18,3.95s1.67,3.04,2.37,4.33c0.91,1.65,1.35,2.45,1.62,2.94
					C78.74,55.97,79.97,57.43,81.89,59.51z"/>
			</g>
		</g>
	</g>
	<g>
		<g>
			<g>
				<path class="st0" d="M138,9.61c-1.49,2.41-2.41,4.08-3.43,7.21c-0.17,0.53-0.45,1.4-1.03,3.19c-1.14,3.59-3.85,12.09-3.85,12.09
					s-2.28,7.11-3.54,11.06c-0.76,2.4-1.23,3.89-1.48,4.66c-0.99,3.14-1.2,5.04-1.39,7.87c1.49-2.41,2.41-4.08,3.43-7.21
					c0.25-0.78,0.73-2.26,1.49-4.66c1.26-3.94,3.52-11.06,3.52-11.06s2.72-8.5,3.86-12.08c0.57-1.8,0.85-2.66,1.01-3.2
					C137.6,14.33,137.81,12.44,138,9.61z"/>
			</g>
			<g>
				<path class="st0" d="M90.72,159.52c-1.49,2.41-2.41,4.08-3.43,7.21c-0.17,0.53-0.45,1.4-1.03,3.19
					c-1.14,3.59-3.85,12.09-3.85,12.09s-2.28,7.11-3.54,11.06c-0.76,2.4-1.23,3.89-1.48,4.66c-0.99,3.14-1.2,5.04-1.39,7.87
					c1.49-2.41,2.41-4.08,3.43-7.21c0.25-0.78,0.73-2.26,1.49-4.66c1.26-3.94,3.52-11.06,3.52-11.06s2.72-8.5,3.86-12.08
					c0.57-1.8,0.85-2.66,1.01-3.2C90.32,164.25,90.53,162.36,90.72,159.52z"/>
			</g>
		</g>
		<g>
			<g>
				<path class="st0" d="M205,138.6c-2.41-1.49-4.08-2.41-7.21-3.43c-0.53-0.17-1.4-0.45-3.19-1.03
					c-3.59-1.14-12.09-3.85-12.09-3.85s-7.11-2.28-11.06-3.54c-2.4-0.76-3.89-1.23-4.66-1.48c-3.14-0.99-5.04-1.2-7.87-1.39
					c2.41,1.49,4.08,2.41,7.21,3.43c0.78,0.25,2.26,0.73,4.66,1.49c3.94,1.26,11.06,3.52,11.06,3.52s8.5,2.72,12.08,3.86
					c1.8,0.57,2.66,0.85,3.2,1.01C200.28,138.2,202.17,138.42,205,138.6z"/>
			</g>
			<g>
				<path class="st0" d="M55.08,91.32c-2.41-1.49-4.08-2.41-7.21-3.43c-0.53-0.17-1.4-0.45-3.19-1.03
					c-3.59-1.14-12.09-3.85-12.09-3.85s-7.11-2.28-11.06-3.54c-2.4-0.76-3.89-1.23-4.66-1.48c-3.14-0.99-5.04-1.2-7.87-1.39
					c2.41,1.49,4.08,2.41,7.21,3.43c0.78,0.25,2.26,0.73,4.66,1.49c3.94,1.26,11.06,3.52,11.06,3.52s8.5,2.72,12.08,3.86
					c1.8,0.57,2.66,0.85,3.2,1.01C50.36,90.92,52.25,91.13,55.08,91.32z"/>
			</g>
		</g>
	</g>
	<g>
		<g>
			<g>
				<path class="st0" d="M166.33,23.67c-2.15,1.85-3.54,3.15-5.46,5.83c-0.32,0.45-0.85,1.19-1.95,2.73
					c-2.18,3.07-7.35,10.34-7.35,10.34s-4.33,6.08-6.73,9.46c-1.46,2.05-2.36,3.33-2.83,3.99c-1.9,2.69-2.68,4.43-3.71,7.07
					c2.15-1.85,3.54-3.15,5.46-5.83c0.47-0.66,1.38-1.93,2.84-3.98c2.4-3.38,6.72-9.46,6.72-9.46s5.17-7.27,7.36-10.34
					c1.09-1.54,1.62-2.28,1.94-2.74C164.51,28.05,165.3,26.31,166.33,23.67z"/>
			</g>
			<g>
				<path class="st0" d="M75.7,152.11c-2.15,1.85-3.54,3.15-5.46,5.83c-0.32,0.45-0.85,1.19-1.95,2.73
					c-2.18,3.07-7.35,10.34-7.35,10.34s-4.33,6.08-6.73,9.46c-1.46,2.05-2.36,3.33-2.83,3.99c-1.9,2.69-2.68,4.43-3.71,7.07
					c2.15-1.85,3.54-3.15,5.46-5.83c0.47-0.66,1.38-1.93,2.84-3.98c2.4-3.38,6.72-9.46,6.72-9.46s5.17-7.27,7.36-10.34
					c1.09-1.54,1.62-2.28,1.94-2.74C73.88,156.49,74.66,154.75,75.7,152.11z"/>
			</g>
		</g>
		<g>
			<g>
				<path class="st0" d="M190.93,166.93c-1.85-2.15-3.15-3.54-5.83-5.46c-0.45-0.32-1.19-0.85-2.73-1.95
					c-3.07-2.18-10.34-7.35-10.34-7.35s-6.08-4.33-9.46-6.73c-2.05-1.46-3.33-2.36-3.99-2.83c-2.69-1.9-4.43-2.68-7.07-3.71
					c1.85,2.15,3.15,3.54,5.83,5.46c0.66,0.47,1.93,1.38,3.98,2.84c3.38,2.4,9.46,6.72,9.46,6.72s7.27,5.17,10.34,7.36
					c1.54,1.09,2.28,1.62,2.74,1.94C186.55,165.12,188.29,165.9,190.93,166.93z"/>
			</g>
			<g>
				<path class="st0" d="M62.49,76.3c-1.85-2.15-3.15-3.54-5.83-5.46c-0.45-0.32-1.19-0.85-2.73-1.95
					c-3.07-2.18-10.34-7.35-10.34-7.35s-6.08-4.33-9.46-6.73c-2.05-1.46-3.33-2.36-3.99-2.83c-2.69-1.9-4.43-2.68-7.07-3.71
					c1.85,2.15,3.15,3.54,5.83,5.46c0.66,0.47,1.93,1.38,3.98,2.84c3.38,2.4,9.46,6.72,9.46,6.72s7.27,5.17,10.34,7.36
					c1.54,1.09,2.28,1.62,2.74,1.94C58.12,74.48,59.85,75.26,62.49,76.3z"/>
			</g>
		</g>
	</g>
	<g>
		<g>
			<g>
				<path class="st0" d="M190.13,47.16c-2.63,1.06-4.36,1.85-7.04,3.77c-0.45,0.33-1.19,0.86-2.72,1.96
					c-3.05,2.21-10.28,7.44-10.28,7.44s-6.05,4.37-9.41,6.79c-2.04,1.48-3.3,2.39-3.96,2.87c-2.66,1.94-3.96,3.34-5.79,5.51
					c2.63-1.06,4.36-1.85,7.04-3.77c0.66-0.48,1.93-1.39,3.97-2.86c3.35-2.43,9.4-6.81,9.4-6.81s7.23-5.22,10.28-7.43
					c1.53-1.11,2.26-1.64,2.71-1.97C187.01,50.73,188.31,49.33,190.13,47.16z"/>
			</g>
			<g>
				<path class="st0" d="M63.07,139.71c-2.63,1.06-4.36,1.85-7.04,3.77c-0.45,0.33-1.19,0.86-2.72,1.96
					c-3.05,2.21-10.28,7.44-10.28,7.44s-6.05,4.37-9.41,6.79c-2.04,1.48-3.3,2.39-3.96,2.87c-2.66,1.94-3.96,3.34-5.79,5.51
					c2.63-1.06,4.36-1.85,7.04-3.77c0.66-0.48,1.93-1.39,3.97-2.86c3.35-2.43,9.4-6.81,9.4-6.81s7.23-5.22,10.28-7.43
					c1.53-1.11,2.26-1.64,2.71-1.97C59.94,143.27,61.24,141.88,63.07,139.71z"/>
			</g>
		</g>
		<g>
			<g>
				<path class="st0" d="M167.44,190.74c-1.06-2.63-1.85-4.36-3.77-7.04c-0.33-0.45-0.86-1.19-1.96-2.72
					c-2.21-3.05-7.44-10.28-7.44-10.28s-4.37-6.05-6.79-9.41c-1.48-2.04-2.39-3.3-2.87-3.96c-1.94-2.66-3.34-3.96-5.51-5.79
					c1.06,2.63,1.85,4.36,3.77,7.04c0.48,0.66,1.39,1.93,2.86,3.97c2.43,3.35,6.81,9.4,6.81,9.4s5.22,7.23,7.43,10.28
					c1.11,1.53,1.64,2.26,1.97,2.71C163.88,187.61,165.28,188.91,167.44,190.74z"/>
			</g>
			<g>
				<path class="st0" d="M74.9,63.67c-1.06-2.63-1.85-4.36-3.77-7.04c-0.33-0.45-0.86-1.19-1.96-2.72
					c-2.21-3.05-7.44-10.28-7.44-10.28s-4.37-6.05-6.79-9.41c-1.48-2.04-2.39-3.3-2.87-3.96c-1.94-2.66-3.34-3.96-5.51-5.79
					c1.06,2.63,1.85,4.36,3.77,7.04c0.48,0.66,1.39,1.93,2.86,3.97c2.43,3.35,6.81,9.4,6.81,9.4s5.22,7.23,7.43,10.28
					c1.11,1.53,1.64,2.26,1.97,2.71C71.34,60.54,72.73,61.84,74.9,63.67z"/>
			</g>
		</g>
	</g>
	<g>
		<g>
			<g>
				<path class="st0" d="M204.58,75.31c-2.83,0.21-4.72,0.44-7.85,1.45c-0.53,0.17-1.39,0.45-3.19,1.04
					c-3.58,1.18-12.05,3.96-12.05,3.96s-7.1,2.32-11.03,3.61c-2.39,0.79-3.87,1.28-4.65,1.53c-3.13,1.04-4.78,1.98-7.19,3.49
					c2.83-0.21,4.72-0.44,7.85-1.45c0.77-0.25,2.26-0.74,4.65-1.52c3.93-1.29,11.03-3.62,11.03-3.62s8.48-2.78,12.06-3.95
					c1.79-0.59,2.65-0.88,3.18-1.05C200.52,77.75,202.18,76.82,204.58,75.31z"/>
			</g>
			<g>
				<path class="st0" d="M55.38,124.83c-2.83,0.21-4.72,0.44-7.85,1.45c-0.53,0.17-1.39,0.45-3.19,1.04
					c-3.58,1.18-12.05,3.96-12.05,3.96s-7.1,2.32-11.03,3.61c-2.39,0.79-3.87,1.28-4.65,1.53c-3.13,1.04-4.78,1.98-7.19,3.49
					c2.83-0.21,4.72-0.44,7.85-1.45c0.77-0.25,2.26-0.74,4.65-1.52c3.93-1.29,11.03-3.62,11.03-3.62s8.48-2.78,12.06-3.95
					c1.79-0.59,2.65-0.88,3.18-1.05C51.32,127.27,52.98,126.33,55.38,124.83z"/>
			</g>
		</g>
		<g>
			<g>
				<path class="st0" d="M139.3,205.18c-0.21-2.83-0.44-4.72-1.45-7.85c-0.17-0.53-0.45-1.39-1.04-3.19
					c-1.18-3.58-3.96-12.05-3.96-12.05s-2.32-7.1-3.61-11.03c-0.79-2.39-1.28-3.87-1.53-4.65c-1.04-3.13-1.98-4.78-3.49-7.19
					c0.21,2.83,0.44,4.72,1.45,7.85c0.25,0.77,0.74,2.26,1.52,4.65c1.29,3.93,3.62,11.03,3.62,11.03s2.78,8.48,3.95,12.06
					c0.59,1.79,0.88,2.65,1.05,3.18C136.86,201.12,137.79,202.78,139.3,205.18z"/>
			</g>
			<g>
				<path class="st0" d="M89.78,55.99c-0.21-2.83-0.44-4.72-1.45-7.85c-0.17-0.53-0.45-1.39-1.04-3.19
					c-1.18-3.58-3.96-12.05-3.96-12.05s-2.32-7.1-3.61-11.03c-0.79-2.39-1.28-3.87-1.53-4.65c-1.04-3.13-1.98-4.78-3.49-7.19
					c0.21,2.83,0.44,4.72,1.45,7.85c0.25,0.77,0.74,2.26,1.52,4.65c1.29,3.93,3.62,11.03,3.62,11.03s2.78,8.48,3.95,12.06
					c0.59,1.79,0.88,2.65,1.05,3.18C87.34,51.92,88.27,53.58,89.78,55.99z"/>
			</g>
		</g>
	</g>
</g>
</svg>
